<svg xmlns="http://www.w3.org/2000/svg" width="241.764" height="58.346" viewBox="0 0 241.764 58.346">
  <g id="Layer_2" data-name="Layer 2" transform="translate(-0.041 0.02)">
    <g id="Layer_1" data-name="Layer 1" transform="translate(0.041 -0.02)">
      <g id="Wordmark" transform="translate(64.737 8.074)">
        <path id="Path_155" data-name="Path 155" d="M865.916,127.83c3.75,0,7.3,2.294,8.05,7.25h-16.7a8.3,8.3,0,0,1,8.649-7.25m7.516,14.583a8.19,8.19,0,0,1-7.115,3.517c-4.65,0-8.2-2.549-9.05-7.05h20.95a12.7,12.7,0,0,0,.153-1.95c0-7-4.893-13.2-12.451-13.2-7.8,0-13.1,5.75-13.1,13.151,0,7.493,5.352,13.151,13.4,13.151a12.605,12.605,0,0,0,11-5.658Z" transform="translate(-787.148 -112.88)" fill="#fff"/>
        <rect id="Rectangle_238" data-name="Rectangle 238" width="4.349" height="36.501" transform="translate(59.264)" fill="#fff"/>
        <path id="Path_156" data-name="Path 156" d="M1055.451,134.048V149.4h-4.35V134.3c0-4.1-2.349-6.4-6.2-6.4-4,0-7.25,2.35-7.25,8.25V149.4H1033.3v-25h4.351V128a8.89,8.89,0,0,1,8.1-4.25c5.849,0,9.7,3.9,9.7,10.3" transform="translate(-940.029 -112.897)" fill="#fff"/>
        <path id="Path_157" data-name="Path 157" d="M1212.58,76.78a8.875,8.875,0,1,0-8.9,8.951,8.746,8.746,0,0,0,8.9-8.951m4.349-24v36.5h-4.349v-4.3a10.8,10.8,0,0,1-9.451,4.952,13.161,13.161,0,0,1,0-26.3,10.815,10.815,0,0,1,9.451,4.95V52.78Z" transform="translate(-1073.172 -52.78)" fill="#fff"/>
        <rect id="Rectangle_239" data-name="Rectangle 239" width="4.349" height="36.501" transform="translate(147.265)" fill="#fff"/>
        <path id="Path_158" data-name="Path 158" d="M637.8,136.871a8.875,8.875,0,1,0-8.9,8.951,8.745,8.745,0,0,0,8.9-8.951m4.351-12.5v25H637.8v-4.3a10.8,10.8,0,0,1-9.449,4.952,13.161,13.161,0,0,1,0-26.3,10.812,10.812,0,0,1,9.449,4.95v-4.3Z" transform="translate(-586.289 -112.872)" fill="#fff"/>
        <path id="Path_159" data-name="Path 159" d="M446.333,88.66A13.538,13.538,0,1,1,450.248,65.5a13.306,13.306,0,0,1,2.061,2.129l3.763-2.753a18.224,18.224,0,1,0-3.322,25.484l-2.5-3.961a13.66,13.66,0,0,1-3.913,2.256" transform="translate(-423.374 -56.972)" fill="#fff"/>
        <path id="Path_160" data-name="Path 160" d="M1451.487,128v14.188c0,4.588-2.668,7.493-6.742,7.493s-7.024-2.906-7.024-7.493V128h-4.4v13.763c0,7.212,4.495,11.894,11.425,11.894,5.995,0,6.93-3.792,6.93-3.887v5.1c0,5.057-2.2,7.914-6.79,7.914a6.758,6.758,0,0,1-6.729-5.842l-3.935,1.376a10.939,10.939,0,0,0,10.671,8.446c7.117,0,11.01-4.684,11.01-11.894V128Z" transform="translate(-1278.877 -116.497)" fill="#fff"/>
      </g>
      <g id="Brand_mark" data-name="Brand mark" transform="translate(0 0)">
        <path id="Path_161" data-name="Path 161" d="M76.109,78.4c-1.671,1.483-3.759,3.329-7.544,3.329H66.3a9.739,9.739,0,0,1-7.013-2.8,9.573,9.573,0,0,1-2.7-6.8v-3.1a9.573,9.573,0,0,1,2.7-6.8,9.738,9.738,0,0,1,7.013-2.8h2.263c3.789,0,5.872,1.844,7.544,3.328a9.182,9.182,0,0,0,7.226,2.866,11.477,11.477,0,0,0,1.815-.145l-.011-.036a13.691,13.691,0,0,0-.84-1.725L81.631,59.1A13.71,13.71,0,0,0,69.758,52.25H64.42A13.71,13.71,0,0,0,52.547,59.1l-2.668,4.622a13.713,13.713,0,0,0,0,13.709l2.668,4.623A13.709,13.709,0,0,0,64.42,88.913h5.339a13.71,13.71,0,0,0,11.873-6.854L84.3,77.444a13.689,13.689,0,0,0,.84-1.725l.014-.034a11.315,11.315,0,0,0-1.818-.153A9.156,9.156,0,0,0,76.109,78.4" transform="translate(-40.702 -44.257)" fill="#006bff"/>
        <path id="Path_162" data-name="Path 162" d="M131.451,117.61h-2.263a6.6,6.6,0,0,0-6.908,6.788v3.1a6.6,6.6,0,0,0,6.908,6.788h2.263c6.074,0,5.6-6.193,14.769-6.193a14.015,14.015,0,0,1,2.59.239,13.693,13.693,0,0,0,0-4.764,14.147,14.147,0,0,1-2.591.239c-9.175,0-8.7-6.193-14.769-6.193" transform="translate(-103.587 -99.622)" fill="#006bff"/>
        <path id="Path_163" data-name="Path 163" d="M50.534,30.95a12.787,12.787,0,0,0-5.268-2.265c0,.017,0,.031,0,.046A13.718,13.718,0,0,1,44.5,31.4a10.029,10.029,0,0,1,4.355,1.794.156.156,0,0,1-.012.041,23.484,23.484,0,1,1,0-13.859.129.129,0,0,0,.012.041A10.009,10.009,0,0,1,44.5,21.209a13.809,13.809,0,0,1,.765,2.672.356.356,0,0,0,0,.043,12.784,12.784,0,0,0,5.268-2.263,2.523,2.523,0,0,0,.983-3.11,26.322,26.322,0,1,0,0,15.511,2.523,2.523,0,0,0-.983-3.11" transform="translate(-0.041 0.02)" fill="#006bff"/>
        <path id="Path_164" data-name="Path 164" d="M132.494,105.332a11.316,11.316,0,0,1-1.818.153,9.15,9.15,0,0,1-7.224-2.866c-1.673-1.483-3.756-3.329-7.545-3.329h-2.263a9.736,9.736,0,0,0-7.013,2.8,9.573,9.573,0,0,0-2.7,6.8v3.1a9.573,9.573,0,0,0,2.7,6.8,9.735,9.735,0,0,0,7.013,2.8h2.263c3.789,0,5.872-1.844,7.545-3.328a9.175,9.175,0,0,1,7.224-2.866,11.478,11.478,0,0,1,1.815.145,13.61,13.61,0,0,0,.767-2.668.418.418,0,0,0,0-.046,14.148,14.148,0,0,0-2.59-.237c-9.175,0-8.7,6.195-14.769,6.195h-2.263a6.6,6.6,0,0,1-6.907-6.79v-3.1a6.6,6.6,0,0,1,6.907-6.788H115.9c6.074,0,5.6,6.192,14.769,6.192a14.014,14.014,0,0,0,2.591-.237V108a13.809,13.809,0,0,0-.765-2.672" transform="translate(-88.043 -84.103)" fill="#0ae8f0"/>
        <path id="Path_165" data-name="Path 165" d="M132.494,105.332a11.316,11.316,0,0,1-1.818.153,9.15,9.15,0,0,1-7.224-2.866c-1.673-1.483-3.756-3.329-7.545-3.329h-2.263a9.736,9.736,0,0,0-7.013,2.8,9.573,9.573,0,0,0-2.7,6.8v3.1a9.573,9.573,0,0,0,2.7,6.8,9.735,9.735,0,0,0,7.013,2.8h2.263c3.789,0,5.872-1.844,7.545-3.328a9.175,9.175,0,0,1,7.224-2.866,11.478,11.478,0,0,1,1.815.145,13.61,13.61,0,0,0,.767-2.668.418.418,0,0,0,0-.046,14.148,14.148,0,0,0-2.59-.237c-9.175,0-8.7,6.195-14.769,6.195h-2.263a6.6,6.6,0,0,1-6.907-6.79v-3.1a6.6,6.6,0,0,1,6.907-6.788H115.9c6.074,0,5.6,6.192,14.769,6.192a14.014,14.014,0,0,0,2.591-.237V108a13.809,13.809,0,0,0-.765-2.672" transform="translate(-88.043 -84.103)" fill="#0ae8f0"/>
      </g>
    </g>
  </g>
</svg>
