<svg xmlns="http://www.w3.org/2000/svg" width="199.844" height="50.565" viewBox="0 0 199.844 50.565">
  <g id="Slack_Technologies_Logo" transform="translate(-0.7 -0.6)">
    <path id="Path_150" data-name="Path 150" d="M159.5,41.551l2.5-5.8a16.64,16.64,0,0,0,9.823,3.06c2.617,0,4.267-1.006,4.267-2.536-.04-4.267-15.661-.926-15.781-11.635-.04-5.435,4.791-9.622,11.635-9.622,4.066,0,8.132,1.006,11.031,3.3l-2.335,5.918a17.621,17.621,0,0,0-9.1-2.9c-2.134,0-3.543,1.006-3.543,2.295.04,4.187,15.781,1.892,15.942,12.118,0,5.556-4.71,9.461-11.474,9.461-4.952,0-9.5-1.168-12.963-3.664m95.775-7.891a7.206,7.206,0,1,1,0-7.086l6.884-3.825a15.1,15.1,0,1,0,0,14.735ZM187.4,2.5h8.615V44.651H187.4Zm78.142,0V44.651h8.615V32.01l10.226,12.641h11.031l-13-15.016,12.037-14.01H283.9l-9.743,11.635V2.5ZM221.619,33.741a7.945,7.945,0,0,1-6.723,3.583,7.206,7.206,0,1,1,0-14.413,7.949,7.949,0,0,1,6.723,3.7Zm0-18.116v3.422c-1.409-2.375-4.912-4.026-8.575-4.026-7.569,0-13.527,6.683-13.527,15.057s5.958,15.137,13.527,15.137c3.664,0,7.166-1.651,8.575-4.026v3.422h8.615V15.624Z" transform="translate(-94.869 -1.135)" fill="#fff"/>
    <path id="Path_151" data-name="Path 151" d="M11.428,72.114A5.314,5.314,0,1,1,6.114,66.8h5.314Zm2.657,0a5.314,5.314,0,0,1,10.628,0V85.4a5.314,5.314,0,0,1-10.628,0Z" transform="translate(-0.06 -39.549)" fill="#e01e5a"/>
    <path id="Path_152" data-name="Path 152" d="M19.34,11.228a5.314,5.314,0,1,1,5.314-5.314v5.314Zm0,2.7a5.314,5.314,0,1,1,0,10.628H6.014a5.314,5.314,0,1,1,0-10.628Z" fill="#36c5f0"/>
    <path id="Path_153" data-name="Path 153" d="M80.185,19.24A5.314,5.314,0,1,1,85.5,24.554H80.185Zm-2.657,0a5.314,5.314,0,1,1-10.628,0V5.914a5.314,5.314,0,1,1,10.628,0V19.24Z" transform="translate(-39.549)" fill="#2eb67d"/>
    <path id="Path_154" data-name="Path 154" d="M72.214,80.085A5.314,5.314,0,1,1,66.9,85.4V80.085Zm0-2.657a5.314,5.314,0,0,1,0-10.628H85.54a5.314,5.314,0,0,1,0,10.628Z" transform="translate(-39.549 -39.549)" fill="#ecb22e"/>
  </g>
</svg>
