<svg id="Group_29" data-name="Group 29" xmlns="http://www.w3.org/2000/svg" width="197.332" height="49.771" viewBox="0 0 197.332 49.771">
  <path id="Path_166" data-name="Path 166" d="M62.252,26.657a6.827,6.827,0,0,0,.4,2.331,6.029,6.029,0,0,0,8.082,3.37,5.836,5.836,0,0,0,3.075-3.372,7,7,0,0,0,0-4.663,5.842,5.842,0,0,0-3.075-3.369,5.93,5.93,0,0,0-8.083,3.367,6.906,6.906,0,0,0-.4,2.335m-4.983.249a11.128,11.128,0,0,1,.882-4.5A10.315,10.315,0,0,1,64.1,16.735a12.7,12.7,0,0,1,8.767,0,10.305,10.305,0,0,1,5.951,5.672,11.154,11.154,0,0,1,.88,4.5,11.154,11.154,0,0,1-.88,4.5,10.288,10.288,0,0,1-5.951,5.669,12.7,12.7,0,0,1-8.767,0A10.3,10.3,0,0,1,58.15,31.4a11.128,11.128,0,0,1-.882-4.5m29.9-.249a6.826,6.826,0,0,0,.4,2.331,5.919,5.919,0,0,0,11.157,0,7,7,0,0,0,0-4.663,5.856,5.856,0,0,0-3.075-3.369,5.928,5.928,0,0,0-8.082,3.367A6.87,6.87,0,0,0,87.17,26.657Zm12.507,7.108H99.59A6.635,6.635,0,0,1,96.56,36.5a9.959,9.959,0,0,1-4.112.854,10.53,10.53,0,0,1-4.308-.832,9.59,9.59,0,0,1-5.262-5.711,12.633,12.633,0,0,1-.691-4.232,11.907,11.907,0,0,1,.737-4.235,10.514,10.514,0,0,1,2.053-3.422,9.506,9.506,0,0,1,3.182-2.286,9.836,9.836,0,0,1,4.069-.835,10.254,10.254,0,0,1,2.6.3,8.971,8.971,0,0,1,1.991.773,8.031,8.031,0,0,1,1.473,1,7.45,7.45,0,0,1,.994,1.047h.131V7.614A1.127,1.127,0,0,1,100.549,6.5h2.935a1.128,1.128,0,0,1,1.129,1.117V35.726a1.126,1.126,0,0,1-1.129,1.118h-2.672a1.14,1.14,0,0,1-1.135-1.117Zm13.409-7.108a6.827,6.827,0,0,0,.4,2.331,6.029,6.029,0,0,0,8.082,3.37,5.836,5.836,0,0,0,3.075-3.372,7,7,0,0,0,0-4.663,5.842,5.842,0,0,0-3.075-3.369,5.929,5.929,0,0,0-8.082,3.367,6.87,6.87,0,0,0-.4,2.335m-4.983.249a11.128,11.128,0,0,1,.882-4.5,10.315,10.315,0,0,1,5.946-5.672,12.692,12.692,0,0,1,8.766,0,10.305,10.305,0,0,1,5.951,5.672,11.129,11.129,0,0,1,.882,4.5,11.154,11.154,0,0,1-.882,4.5,10.288,10.288,0,0,1-5.951,5.669,12.692,12.692,0,0,1-8.766,0,10.3,10.3,0,0,1-5.946-5.669,11.128,11.128,0,0,1-.882-4.5M133.02,8.986a2.855,2.855,0,0,1,.9-2.1A3.14,3.14,0,0,1,136.216,6a3.36,3.36,0,0,1,2.335.851,2.754,2.754,0,0,1,.949,2.135,2.754,2.754,0,0,1-.949,2.135,3.359,3.359,0,0,1-2.333.851,3.131,3.131,0,0,1-2.294-.894,2.842,2.842,0,0,1-.9-2.092m21.4,13.269a1.124,1.124,0,0,1-.953-.565,2.967,2.967,0,0,0-2.884-1.563c-1.731,0-3.089.815-3.089,2.216,0,1.356,1.314,1.633,2.126,1.882.891.275,2.594.653,3.532.877a11.349,11.349,0,0,1,2.674,1,5.43,5.43,0,0,1,3.112,5.061c0,5.024-4.9,6.69-8.3,6.69-2.622,0-7.548-.4-8.629-5.483a1.123,1.123,0,0,1,1.117-1.254h2.831a1.126,1.126,0,0,1,1.044.737c.366,1.022,1.523,1.792,3.473,1.792,2.094,0,3.332-.843,3.332-1.964a2.147,2.147,0,0,0-.933-1.734c-1.588-1.095-5.514-1.218-7.645-2.37a4.9,4.9,0,0,1-2.865-4.887c0-4.738,4.24-6.736,7.963-6.736,5.493,0,7.509,3.526,7.736,4.832a1.159,1.159,0,0,1-1.07,1.468Zm5.018-2.84V17.276a1.132,1.132,0,0,1,1.132-1.125h2.8V10.9a1.126,1.126,0,0,1,.68-1.03l2.988-1.286a1.136,1.136,0,0,1,1.58,1.039v6.531h4.63a1.148,1.148,0,0,1,1.142,1.125v2.142a1.169,1.169,0,0,1-1.14,1.128h-4.632V29.6a4.433,4.433,0,0,0,.372,2.442c.367.547.907.75,1.988.75a2.589,2.589,0,0,0,.82-.129,1.124,1.124,0,0,1,1.373.5c.342.65.731,1.366,1.006,1.879a1.143,1.143,0,0,1-.491,1.548,10.152,10.152,0,0,1-6.881.319,4.626,4.626,0,0,1-3.2-3.923,16.47,16.47,0,0,1-.238-3.243V20.546h-2.79a1.143,1.143,0,0,1-1.14-1.131m-118.113,0V17.276a1.118,1.118,0,0,1,1.1-1.125h3.112V10.9a1.124,1.124,0,0,1,.663-1.03l2.908-1.286a1.11,1.11,0,0,1,1.54,1.039v6.531h4.511a1.134,1.134,0,0,1,1.112,1.125v2.142a1.156,1.156,0,0,1-1.111,1.128H50.651V29.6a4.543,4.543,0,0,0,.361,2.442c.358.547.883.75,1.936.75a2.481,2.481,0,0,0,.8-.129,1.084,1.084,0,0,1,1.338.5c.331.65.712,1.366.98,1.879a1.159,1.159,0,0,1-.481,1.548,8.255,8.255,0,0,1-3.7.771,8.169,8.169,0,0,1-3-.453,5.164,5.164,0,0,1-2.184-1.56,5.371,5.371,0,0,1-.93-2.363,17,17,0,0,1-.232-3.243V20.546H42.432a1.13,1.13,0,0,1-1.112-1.131M135.1,36.858h2.815A1.1,1.1,0,0,0,139,35.749V17.561a1.1,1.1,0,0,0-1.083-1.109H135.1a1.1,1.1,0,0,0-1.084,1.109V35.749a1.1,1.1,0,0,0,1.084,1.109" transform="translate(22.947 3.332)" fill="#fff" fill-rule="evenodd"/>
  <path id="Path_167" data-name="Path 167" d="M6.229,0A6.243,6.243,0,0,0,0,6.221V43.55a6.243,6.243,0,0,0,6.229,6.221H43.607a6.243,6.243,0,0,0,6.229-6.221V6.221A6.243,6.243,0,0,0,43.607,0Z" fill="#e44332" fill-rule="evenodd"/>
  <g id="Group_28" data-name="Group 28" transform="translate(0 9.457)">
    <path id="Path_168" data-name="Path 168" d="M10.564,20.2,30.573,8.565a.782.782,0,0,0-.031-1.291c-.479-.277-1.389-.8-1.728-1a1.562,1.562,0,0,0-1.541.019c-.24.14-16.227,9.425-16.76,9.73a2.065,2.065,0,0,1-2.069,0L0,11.068V15.28c2.055,1.21,7.165,4.215,8.4,4.923a2.019,2.019,0,0,0,2.16,0" transform="translate(0 -6.08)" fill="#fff" fill-rule="evenodd"/>
    <path id="Path_169" data-name="Path 169" d="M10.564,25.318l20.01-11.632a.782.782,0,0,0-.031-1.291c-.479-.277-1.389-.8-1.728-1a1.562,1.562,0,0,0-1.541.019c-.24.14-16.227,9.425-16.76,9.73a2.065,2.065,0,0,1-2.069,0L0,16.188V20.4c2.055,1.21,7.165,4.215,8.4,4.923a2.019,2.019,0,0,0,2.16,0" transform="translate(0 -3.237)" fill="#fff" fill-rule="evenodd"/>
    <path id="Path_170" data-name="Path 170" d="M10.564,30.758l20.01-11.632a.782.782,0,0,0-.031-1.291c-.479-.277-1.389-.8-1.728-1a1.562,1.562,0,0,0-1.541.019c-.24.14-16.227,9.425-16.76,9.73a2.065,2.065,0,0,1-2.069,0L0,21.628V25.84c2.055,1.21,7.165,4.215,8.4,4.923a2.019,2.019,0,0,0,2.16,0" transform="translate(0 -0.216)" fill="#fff" fill-rule="evenodd"/>
  </g>
</svg>
